# xmcd
#
# Track frame offsets: 
#        182
#        39415
#        109860
#        133647
#        178982
#
# Disc length: 3081 seconds
#
# Revision: 1
# Processed by: cddbd v1.5.2PL0 Copyright (c) Steve Scherf et al.
# Submitted via: ExactAudioCopy v0.99pb2
#
DISCID=410c0705
DTITLE=Red Mitchell - Chocolate Cadillac
DYEAR=1976
DGENRE=Jazz
TTITLE0=Idrees
TTITLE1=U. A. I. (You Are Invited)
TTITLE2=These Foolish Things
TTITLE3=A Theme For Ahmad
TTITLE4=Chocolate Cadillac
EXTD=YEAR: 1976
EXTT0=
EXTT1=
EXTT2=
EXTT3=
EXTT4=
PLAYORDER=
